<svg width="682" height="568" viewBox="0 0 682 568" fill="none" xmlns="http://www.w3.org/2000/svg">
<path d="M227.453 356.661C201.063 287.421 201.683 205.771 251.263 189.681C277.973 181.001 317.873 177.421 376.563 274.441C379.743 280.681 379.513 285.731 376.123 288.071C370.733 291.801 364.853 287.951 360.643 281.781C301.603 194.931 277.603 208.611 272.233 210.801C246.433 221.391 265.683 294.221 286.613 338.811C294.833 356.341 290.453 373.111 273.543 379.851C250.303 389.101 233.053 371.241 227.483 356.641L227.463 356.671L227.453 356.661Z" fill="#FF00AA"/>
<path d="M455.053 211.371C481.443 280.611 480.823 362.261 431.273 378.351C404.563 387.031 364.663 390.611 305.973 293.591C302.793 287.351 303.013 282.301 306.413 279.961C311.803 276.231 317.683 280.081 321.893 286.251C380.923 373.071 404.923 359.391 410.293 357.181C436.093 346.581 416.843 273.761 395.913 229.171C387.693 211.641 392.073 194.871 408.983 188.131C432.223 178.881 449.473 196.741 455.043 211.331V211.351L455.053 211.371Z" fill="#FF00AA"/>
</svg>
